<svg width="528" height="87" viewBox="0 0 528 87" fill="none" xmlns="http://www.w3.org/2000/svg">
<path d="M306.034 74.0771V82.1321C306.034 83.2282 305.157 84.1458 304.035 84.1458H295.783C294.66 84.1458 293.72 83.2282 293.72 82.1321V74.0771C293.72 72.981 294.66 72.125 295.783 72.125H304.035C305.157 72.125 306.034 72.981 306.034 74.0771Z" fill="#3a2a1f"/>
<path d="M117.506 57.3095H71.1605C71.5518 63.5035 73.2719 68.4389 76.3335 72.0967C79.395 75.7546 83.6737 77.5929 89.2317 77.5929C91.0637 77.5929 92.8708 77.3436 94.709 76.87C96.5161 76.3965 98.2114 75.6424 99.7701 74.608C101.329 73.5736 102.633 72.2899 103.745 70.7881C104.856 69.2801 105.608 67.5228 105.999 65.5412H116.338C115.786 68.8875 114.643 71.8475 112.948 74.4148C111.252 77.0071 109.197 79.1881 106.775 80.9703C104.359 82.7525 101.633 84.1235 98.6275 85.0707C95.6218 86.0178 92.4858 86.4914 89.2317 86.4914C84.9468 86.4914 81.0593 85.7374 77.5817 84.2294C74.1041 82.7214 71.1295 80.5778 68.6579 77.7861C66.2111 74.9944 64.2922 71.6231 62.9571 67.6599C61.6219 63.6967 60.9264 59.235 60.9264 54.2934C60.9264 49.3519 61.5909 44.8901 62.9571 40.8771C64.2922 36.8578 66.2111 33.4554 68.6579 30.6949C71.1046 27.9032 74.0792 25.7595 77.5817 24.2515C81.0593 22.7435 84.9468 21.9895 89.2317 21.9895C93.5166 21.9895 97.2675 22.7124 100.689 24.1954C104.136 25.6723 107.11 27.7661 109.613 30.4456C112.116 33.1501 114.059 36.4465 115.426 40.3474C116.817 44.2545 117.512 48.6041 117.512 53.4584V57.3095H117.506ZM107.166 48.3548C106.862 46.2922 106.303 44.2234 105.496 42.1608C104.688 40.0981 103.608 38.2287 102.161 36.5524C100.745 34.8762 98.9628 33.5364 96.8204 32.5082C94.6779 31.4738 92.1504 30.9441 89.2007 30.9441C84.0588 30.9441 79.9974 32.5082 77.0228 35.6053C74.0482 38.7023 72.1603 42.9709 71.3779 48.3548H107.16H107.166Z" fill="#3a2a1f"/>
<path d="M162.054 23.48V32.4187H137.924V85.0251H127.776V23.48H137.924V30.1358H141.752C142.701 28.5496 143.569 27.3242 144.381 26.4347C145.162 25.57 146.28 24.9044 147.679 24.4566C149.077 24.0087 150.895 23.735 153.105 23.623C155.341 23.5111 158.332 23.4551 162.079 23.4551L162.054 23.48Z" fill="#3a2a1f"/>
<path d="M189.912 21.9092C192.06 21.9092 194.095 22.2454 195.987 22.9116C197.88 23.5778 199.585 24.4743 201.061 25.5888C202.536 26.7032 203.793 27.9609 204.82 29.3492C205.854 30.7439 206.607 32.1074 207.08 33.4459H210.896V0H221.011V85.0717H210.896V74.9545H207.08C206.607 76.2931 205.854 77.6877 204.82 79.0512C203.787 80.4458 202.536 81.6972 201.061 82.8117C199.585 83.9261 197.911 84.8164 195.987 85.4889C194.095 86.155 192.06 86.4912 189.912 86.4912C186.009 86.4912 182.418 85.7939 179.125 84.3993C175.838 83.0047 172.993 80.9688 170.597 78.2667C168.225 75.5647 166.358 72.2151 164.995 68.2056C163.656 64.1898 162.959 59.5639 162.959 54.3216C162.959 49.0794 163.625 44.3414 164.995 40.3256C166.333 36.3099 168.2 32.9416 170.597 30.2084C172.968 27.4752 175.807 25.4144 179.125 24.0198C182.411 22.6252 186.009 21.9279 189.912 21.9279V21.903V21.9092ZM191.475 77.5445C193.846 77.5445 195.907 77.2394 197.606 76.6542C199.305 76.069 200.756 75.2907 201.951 74.3381C203.152 73.3918 204.123 72.3022 204.932 71.1318C205.71 69.9301 206.439 68.7597 207.08 67.5643H210.896V40.886H207.08C206.439 39.6844 205.742 38.5139 204.932 37.3185C204.123 36.1169 203.146 35.0585 201.951 34.1121C200.749 33.1658 199.305 32.3813 197.606 31.7961C195.907 31.2108 193.846 30.9057 191.475 30.9057C189.103 30.9057 186.962 31.354 184.87 32.2692C182.754 33.1907 180.911 34.5853 179.268 36.5091C177.649 38.4018 176.342 40.8548 175.34 43.8371C174.338 46.8193 173.865 50.3308 173.865 54.3714C173.865 58.4121 174.369 61.8986 175.34 64.7937C176.342 67.695 177.656 70.092 179.268 72.0158C180.886 73.9085 182.754 75.3343 184.87 76.2557C186.962 77.1772 189.19 77.6192 191.475 77.6192V77.5383V77.5445Z" fill="#3a2a1f"/>
<path d="M241.373 65.6057C241.453 67.837 241.957 69.7068 242.933 71.2712C243.878 72.8356 245.133 74.0635 246.687 74.9797C248.241 75.8959 249.969 76.5441 251.921 76.9617C253.866 77.3543 255.874 77.5475 257.932 77.5475C259.517 77.5475 261.214 77.4354 262.997 77.1861C264.781 76.9367 266.422 76.5192 267.92 75.8772C269.425 75.2352 270.674 74.3128 271.675 73.085C272.675 71.8571 273.148 70.2927 273.148 68.3668C273.148 66.4409 272.564 64.7643 271.42 63.5365C270.276 62.3087 268.747 61.3052 266.826 60.495C264.937 59.7159 262.736 59.0427 260.287 58.513C257.838 57.9832 255.364 57.4534 252.859 56.8925C250.354 56.3315 247.881 55.6646 245.432 54.8544C242.983 54.0753 240.782 53.0095 238.893 51.7567C237.003 50.4728 235.468 48.8523 234.299 46.8766C233.155 44.8946 232.571 42.414 232.571 39.4846C232.571 36.387 233.267 33.7069 234.66 31.5068C236.052 29.2755 237.83 27.4618 240.005 26.0906C242.174 24.6945 244.655 23.6599 247.377 22.993C250.106 22.3261 252.828 21.9895 255.532 21.9895C259.013 21.9895 262.239 22.2949 265.161 22.8808C268.082 23.4666 270.699 24.5013 272.955 25.9784C275.212 27.4556 277.02 29.4375 278.357 31.9493C279.693 34.4611 280.501 37.5837 280.725 41.2983H270.624C270.456 39.3163 269.959 37.6709 269.064 36.362C268.2 35.0532 267.087 33.9874 265.726 33.2083C264.39 32.4292 262.886 31.8434 261.276 31.4756C259.66 31.1141 257.994 30.9459 256.353 30.9459C254.849 30.9459 253.288 31.058 251.703 31.3073C250.118 31.5567 248.67 31.9742 247.365 32.5601C246.059 33.146 244.996 33.9562 244.164 34.9348C243.331 35.9382 242.914 37.2222 242.914 38.8115C242.914 40.5691 243.554 42.0213 244.804 43.1619C246.084 44.3087 247.669 45.281 249.621 46.0352C251.567 46.7893 253.742 47.4313 256.16 47.9299C258.584 48.4597 260.977 48.9894 263.37 49.5504C265.9 50.1113 268.38 50.7782 270.798 51.5885C273.216 52.3987 275.361 53.4271 277.225 54.7422C279.09 56.0511 280.594 57.7027 281.732 59.6785C282.876 61.6605 283.46 64.1411 283.46 67.0704C283.46 70.7228 282.683 73.7955 281.148 76.3072C279.587 78.819 277.586 80.8259 275.081 82.3342C272.576 83.8425 269.766 84.927 266.646 85.5441C263.501 86.186 260.412 86.4914 257.298 86.4914C253.873 86.4914 250.647 86.0988 247.557 85.3446C244.468 84.5905 241.739 83.3938 239.346 81.7733C236.978 80.1528 235.064 78.0088 233.64 75.3287C232.223 72.6798 231.415 69.4139 231.272 65.6182H241.373V65.5933V65.6057Z" fill="#3a2a1f"/>
<path d="M368.859 77.9045V38.9266C368.859 35.7424 368.167 33.1002 366.825 30.9504C365.484 28.8005 363.694 27.0681 361.461 25.7595C359.228 24.4447 356.746 23.4726 354.008 22.8806C351.269 22.2948 348.5 21.9895 345.712 21.9895L345.656 22.0207C342.25 22.0207 338.975 22.3572 335.882 23.08C332.782 23.8029 330.05 24.9806 327.698 26.5946C325.353 28.2397 323.45 30.3584 321.972 32.9818C320.488 35.6053 319.683 38.8082 319.515 42.6344H329.65C329.956 38.1165 331.553 35.0133 334.422 33.3993C337.298 31.748 340.872 30.9441 345.175 30.9441C346.772 30.9441 348.363 31.1124 349.947 31.4177C351.544 31.7542 352.997 32.3088 354.313 33.094C355.623 33.8729 356.652 34.9385 357.463 36.2471C358.274 37.5619 358.667 39.207 358.667 41.1887V48.6913H341.489C333.586 48.6913 327.442 50.1121 322.97 52.9911C318.529 55.8388 316.296 60.3816 316.296 66.5757C316.296 70.5638 316.995 73.8229 318.336 76.4214C319.702 79.0137 321.38 81.0202 323.357 82.5033C325.34 83.9801 327.492 85.0083 329.813 85.6003C332.127 86.1861 334.285 86.4914 336.262 86.4914C340.254 86.4914 343.94 85.6253 347.371 83.868C350.808 82.1356 353.346 79.1819 355.024 75.0505H358.711V79.8798C358.711 82.6404 360.862 84.8962 363.582 85.0582H364.249L373.468 85.0395V77.8982H368.846L368.859 77.9045ZM358.692 67.4979H355.012C354.7 68.0587 354.232 68.8938 353.64 70.0092C353.053 71.1246 352.13 72.2401 350.901 73.3555C349.673 74.4709 348.051 75.443 346.017 76.2282C343.984 77.0383 341.383 77.4309 338.196 77.4309C336.131 77.4309 334.372 77.1193 332.894 76.4837C331.441 75.8418 330.212 75.0318 329.264 74.0285C328.316 73.0252 327.611 71.8849 327.168 70.57C326.719 69.2614 326.501 67.9217 326.501 66.5819C326.501 64.5193 326.894 62.7869 327.704 61.4472C328.509 60.1074 329.632 59.048 331.11 58.2442C332.588 57.4341 334.316 56.8733 336.3 56.5679C338.283 56.2563 340.491 56.0881 342.868 56.0881H358.729V67.5291L358.698 67.4979H358.692Z" fill="#3a2a1f"/>
<path d="M394.866 28.6383V85.0251H385.149V30.5859H380.212V23.4551H389.647C392.532 23.4551 394.872 25.776 394.872 28.6383H394.866Z" fill="#3a2a1f"/>
<path d="M395.164 3.9648V10.6453C395.164 11.5566 394.435 12.3139 393.498 12.3139H386.618C385.681 12.3139 384.902 11.5566 384.902 10.6453V3.9648C384.902 3.05354 385.681 2.34546 386.618 2.34546H393.498C394.435 2.34546 395.164 3.05354 395.164 3.9648Z" fill="#3a2a1f"/>
<path d="M50.722 44.9879V85.0255H40.7424V43.7948C40.7424 42.4464 40.6618 41.0171 40.507 39.5071C40.3459 37.9971 39.8751 36.63 39.0822 35.3933C38.2893 34.163 37.0999 33.1314 35.5203 32.2925C33.9344 31.4598 31.7601 31.0435 28.9849 31.0435C25.8937 31.0435 23.4221 31.4412 21.5575 32.2366C19.6991 33.032 18.2309 33.9827 17.1592 35.0951C16.0876 36.2074 15.338 37.3011 14.9044 38.3699C14.4708 39.445 14.13 40.2963 13.8947 40.9301H9.97342V85.0193H0V23.5368H9.97962V33.4297H13.9008C15.4867 29.2973 17.723 26.358 20.6097 24.6119C23.5026 22.8657 26.922 21.9895 30.8866 21.9895C33.6557 21.9895 36.2326 22.3686 38.6052 23.1205C40.9778 23.8786 43.0778 25.1463 44.899 26.9359C46.7202 28.7256 48.145 31.087 49.1733 34.0262C50.2016 36.9655 50.7158 40.6194 50.7158 44.9879H50.722Z" fill="#3a2a1f"/>
<path d="M426.086 45.9874C426.086 42.9617 428.452 40.5462 431.409 40.5462H449.974C452.931 40.5462 455.297 38.1244 455.297 35.1049V16.3531C455.297 13.3274 457.663 10.9119 460.62 10.9119H461.093C496.573 13.813 524.838 42.6069 527.795 78.8902V79.6186C527.795 82.6443 525.429 85.0598 522.472 85.0598H503.901C501.299 85.0598 499.169 83.1236 498.696 80.5836V79.7369C496.449 59.659 481.19 43.6901 461.797 40.789H460.732C457.775 40.789 455.409 43.2107 455.409 46.2302V64.8575C455.409 67.8832 453.043 70.2987 450.086 70.2987H431.521C428.564 70.2987 426.198 67.8769 426.198 64.8575L426.08 45.9874H426.086Z" fill="#3a2a1f"/>
</svg>
